<svg xmlns="http://www.w3.org/2000/svg" width="110" height="110" viewBox="0 0 110 110">
  <g id="icon-clock" transform="translate(-706 -645)">
    <g id="text-2">
      <g id="Group_8" data-name="Group 8" transform="translate(93 192)">
        <g id="Rectangle_10" data-name="Rectangle 10" transform="translate(613 453)" fill="none" stroke="#fff" stroke-width="1">
          <rect width="110" height="110" rx="5" stroke="none"/>
          <rect x="0.5" y="0.5" width="109" height="109" rx="4.5" fill="none"/>
        </g>
      </g>
    </g>
    <g id="Ebene_1" transform="translate(719.994 657.089)">
      <g id="Group_12" data-name="Group 12" transform="translate(0.006 -0.089)">
        <g id="Group_11" data-name="Group 11" transform="translate(0 0)">
          <g id="Group_10" data-name="Group 10">
            <path id="Path_2" data-name="Path 2" d="M2.5,44.488A42.058,42.058,0,1,1,44.558,86.545,42.033,42.033,0,0,1,2.5,44.488Z" transform="translate(-2.03 -1.955)" fill="none"/>
            <path id="Path_3" data-name="Path 3" d="M.947,42.443A41.58,41.58,0,0,1,53.921,2.432,41.605,41.605,0,0,1,59.7,80.339,41.554,41.554,0,0,1,.948,42.443a.471.471,0,0,0-.942,0A42.532,42.532,0,0,0,72.262,72.868a42.926,42.926,0,0,0,9.72-46.351A42.894,42.894,0,0,0,43.6-.073,42.489,42.489,0,0,0,.006,42.442a.471.471,0,0,0,.942,0Z" transform="translate(-0.006 0.089)" fill="#fff"/>
          </g>
        </g>
      </g>
      <g id="Group_37" data-name="Group 37" transform="translate(1.567 1.477)">
        <g id="Group_14" data-name="Group 14" transform="translate(40.024 74.734)">
          <g id="Group_13" data-name="Group 13">
            <path id="Path_4" data-name="Path 4" d="M225.73,409.73v5.375" transform="translate(-224.788 -408.819)" fill="none"/>
            <path id="Path_5" data-name="Path 5" d="M220.73,405.8v5.375a.943.943,0,0,0,1.884,0V405.8A.943.943,0,0,0,220.73,405.8Z" transform="translate(-220.73 -404.893)" fill="#fff"/>
          </g>
        </g>
        <g id="Group_16" data-name="Group 16" transform="translate(19.979 70.13)">
          <g id="Group_15" data-name="Group 15">
            <path id="Path_6" data-name="Path 6" d="M122.278,385.34l-2.847,4.61" transform="translate(-118.471 -384.419)" fill="none"/>
            <path id="Path_7" data-name="Path 7" d="M117.327,380.9l-2.847,4.61c-.64,1.037.99,1.982,1.627.951l2.847-4.61c.641-1.038-.989-1.982-1.626-.951Z" transform="translate(-114.334 -380.453)" fill="#fff"/>
          </g>
        </g>
        <g id="Group_18" data-name="Group 18" transform="translate(5.342 57.26)">
          <g id="Group_17" data-name="Group 17">
            <path id="Path_8" data-name="Path 8" d="M46.236,317.21l-4.663,2.779" transform="translate(-40.645 -316.255)" fill="none"/>
            <path id="Path_9" data-name="Path 9" d="M41.764,312.284,37.1,315.063a.943.943,0,0,0,.951,1.627l4.663-2.779a.943.943,0,0,0-.951-1.628Z" transform="translate(-36.649 -312.143)" fill="#fff"/>
          </g>
        </g>
        <g id="Group_20" data-name="Group 20" transform="translate(0 40.024)">
          <g id="Group_19" data-name="Group 19">
            <path id="Path_10" data-name="Path 10" d="M18.423,225.66H13.13" transform="translate(-12.219 -224.718)" fill="none"/>
            <path id="Path_11" data-name="Path 11" d="M14.5,220.66H9.2a.943.943,0,0,0,0,1.884H14.5A.943.943,0,0,0,14.5,220.66Z" transform="translate(-8.293 -220.66)" fill="#fff"/>
          </g>
        </g>
        <g id="Group_22" data-name="Group 22" transform="translate(5.331 19.999)">
          <g id="Group_21" data-name="Group 21">
            <path id="Path_12" data-name="Path 12" d="M46.3,121.987l-4.731-2.629" transform="translate(-40.633 -118.419)" fill="none"/>
            <path id="Path_13" data-name="Path 13" d="M42.732,117.129,38,114.5c-1.063-.591-2.013,1.037-.951,1.627l4.731,2.629c1.063.59,2.013-1.036.951-1.626Z" transform="translate(-36.586 -114.374)" fill="#fff"/>
          </g>
        </g>
        <g id="Group_24" data-name="Group 24" transform="translate(19.996 5.333)">
          <g id="Group_23" data-name="Group 23">
            <path id="Path_14" data-name="Path 14" d="M122,46.065,119.429,41.5" transform="translate(-118.486 -40.567)" fill="none"/>
            <path id="Path_15" data-name="Path 15" d="M118.757,41.554l-2.576-4.561a.943.943,0,0,0-1.627.951L117.13,42.5a.942.942,0,0,0,1.626-.951Z" transform="translate(-114.424 -36.531)" fill="#fff"/>
          </g>
        </g>
        <g id="Group_26" data-name="Group 26" transform="translate(40.024)">
          <g id="Group_25" data-name="Group 25">
            <path id="Path_16" data-name="Path 16" d="M225.73,18.367V13.061" transform="translate(-224.788 -12.15)" fill="none"/>
            <path id="Path_17" data-name="Path 17" d="M222.614,14.442V9.136a.943.943,0,0,0-1.884,0v5.306A.943.943,0,0,0,222.614,14.442Z" transform="translate(-220.73 -8.224)" fill="#fff"/>
          </g>
        </g>
        <g id="Group_28" data-name="Group 28" transform="translate(57.516 5.326)">
          <g id="Group_27" data-name="Group 27">
            <path id="Path_18" data-name="Path 18" d="M318.53,46.216l2.542-4.712" transform="translate(-317.596 -40.56)" fill="none"/>
            <path id="Path_19" data-name="Path 19" d="M315.32,42.624l2.542-4.712c.577-1.069-1.05-2.02-1.627-.951l-2.542,4.712c-.575,1.069,1.051,2.02,1.628.951Z" transform="translate(-313.572 -36.492)" fill="#fff"/>
          </g>
        </g>
        <g id="Group_30" data-name="Group 30" transform="translate(70.072 19.986)">
          <g id="Group_29" data-name="Group 29">
            <path id="Path_20" data-name="Path 20" d="M385.13,122.14l4.663-2.779" transform="translate(-384.204 -118.408)" fill="none"/>
            <path id="Path_21" data-name="Path 21" d="M381.616,118.85l4.663-2.779a.943.943,0,0,0-.951-1.627l-4.663,2.779a.943.943,0,0,0,.951,1.628Z" transform="translate(-380.213 -114.305)" fill="#fff"/>
          </g>
        </g>
        <g id="Group_32" data-name="Group 32" transform="translate(74.721 40.024)">
          <g id="Group_31" data-name="Group 31">
            <path id="Path_22" data-name="Path 22" d="M409.73,225.66h5.388" transform="translate(-408.819 -224.718)" fill="none"/>
            <path id="Path_23" data-name="Path 23" d="M405.8,222.544h5.388a.943.943,0,0,0,0-1.884H405.8A.943.943,0,0,0,405.8,222.544Z" transform="translate(-404.893 -220.66)" fill="#fff"/>
          </g>
        </g>
        <g id="Group_34" data-name="Group 34" transform="translate(70.131 57.424)">
          <g id="Group_33" data-name="Group 33">
            <path id="Path_24" data-name="Path 24" d="M385.49,318.03l4.6,2.624" transform="translate(-384.555 -317.085)" fill="none"/>
            <path id="Path_25" data-name="Path 25" d="M380.987,314.774l4.6,2.624a.943.943,0,0,0,.951-1.627l-4.6-2.624a.943.943,0,0,0-.951,1.628Z" transform="translate(-380.526 -313.016)" fill="#fff"/>
          </g>
        </g>
        <g id="Group_36" data-name="Group 36" transform="translate(57.375 69.96)">
          <g id="Group_35" data-name="Group 35">
            <path id="Path_26" data-name="Path 26" d="M317.82,384.53l2.677,4.764" transform="translate(-316.878 -383.592)" fill="none"/>
            <path id="Path_27" data-name="Path 27" d="M312.949,380.963l2.677,4.764a.943.943,0,0,0,1.627-.951l-2.677-4.764a.942.942,0,0,0-1.626.951Z" transform="translate(-312.821 -379.55)" fill="#fff"/>
          </g>
        </g>
      </g>
      <g id="Group_44" data-name="Group 44" transform="translate(26.907 15.852)">
        <g id="Group_39" data-name="Group 39" transform="translate(13.356 24.187)">
          <g id="Group_38" data-name="Group 38">
            <path id="Path_28" data-name="Path 28" d="M226.311,225.4h-.132" transform="translate(-223.824 -223.045)" fill="none"/>
            <path id="Path_29" data-name="Path 29" d="M216.166,212.9h-.132a2.355,2.355,0,0,0,0,4.71h.132a2.355,2.355,0,0,0,0-4.71Z" transform="translate(-213.679 -212.9)" fill="#fff"/>
          </g>
        </g>
        <g id="Group_41" data-name="Group 41" transform="translate(15.223 5.066)">
          <g id="Group_40" data-name="Group 40">
            <path id="Path_30" data-name="Path 30" d="M226.09,134.992V113.83" transform="translate(-225.619 -113.374)" fill="none"/>
            <path id="Path_31" data-name="Path 31" d="M224.532,133.029V111.868a.471.471,0,0,0-.942,0v21.162A.471.471,0,0,0,224.532,133.029Z" transform="translate(-223.59 -111.412)" fill="#fff"/>
          </g>
        </g>
        <g id="Group_43" data-name="Group 43">
          <g id="Group_42" data-name="Group 42">
            <path id="Path_32" data-name="Path 32" d="M160.379,113.075,145.31,87" transform="translate(-144.835 -86.533)" fill="none"/>
            <path id="Path_33" data-name="Path 33" d="M158.741,110.828,144.788,86.684l-1.116-1.932a.471.471,0,0,0-.813.475l13.953,24.144,1.116,1.932a.472.472,0,0,0,.816-.475Z" transform="translate(-142.791 -84.523)" fill="#fff"/>
          </g>
        </g>
      </g>
    </g>
  </g>
</svg>
